<?xml version="1.0" encoding="utf-8"?>
<!-- Generator: Adobe Illustrator 24.0.2, SVG Export Plug-In . SVG Version: 6.00 Build 0)  -->
<svg version="1.1" id="Layer_1" xmlns="http://www.w3.org/2000/svg" xmlns:xlink="http://www.w3.org/1999/xlink" x="0px" y="0px"
	 viewBox="0 0 1578 1585" style="enable-background:new 0 0 1578 1585;" xml:space="preserve">
<style type="text/css">
	.st0{opacity:4.000000e-02;fill:none;stroke:#0E9EBE;stroke-width:6.5847;enable-background:new    ;}
	.st1{opacity:0.2;fill:none;stroke:#0E9EBE;stroke-width:6.5847;enable-background:new    ;}
	.st2{opacity:4.000000e-02;fill:none;stroke:#0E9EBE;stroke-width:3.2924;enable-background:new    ;}
	.st3{opacity:0.2;fill:none;stroke:#0E9EBE;stroke-width:3.2924;enable-background:new    ;}
	.st4{fill:#151515;stroke:#1A171A;stroke-width:6.3239;}
	.st5{fill:#151515;stroke:#1A171A;stroke-width:6.5847;}
	.st6{fill:#151515;stroke:#1A171A;stroke-width:6.0246;}
	.st7{fill:#151515;stroke:#1A171A;stroke-width:4.1154;}
</style>
<path class="st0" d="M1159.8,480.8L1159.8,480.8l139.6,154.8c33,36.6,43.9,88.1,28.5,135l-65,198v0l-64.2,198.3
	c-15.2,46.9-54.3,82.1-102.6,92.2l-204,42.7h0l-203.8,43.5c-48.2,10.3-98.3-6-131.1-42.8l-139-155.3l0,0L278.6,992.4
	c-33-36.6-43.9-88.1-28.5-135l65-198l0,0l64.2-198.3c15.2-46.9,54.3-82.1,102.6-92.2l204-42.7l0,0l203.8-43.5
	c48.2-10.3,98.3,6,131.1,42.8L1159.8,480.8z"/>
<path class="st1" d="M429.5,1160l128.9,142.9c31.5,34.9,80.3,54,126.1,43.1l0,0"/>
<path class="st2" d="M1318.4,338.4L1318.4,338.4l221.5,245.5c33.4,37.1,44.4,89.2,28.9,136.6l-103.2,314.2v0l-101.9,314.6
	c-15.4,47.5-55,83.1-103.8,93.3l-323.7,67.7l0,0l-323.4,69.1c-48.8,10.4-99.4-6.1-132.7-43.3l-220.5-246.4l0,0L38.1,1044.1
	C4.7,1007-6.3,954.9,9.2,907.5l103.2-314.2l0,0l101.9-314.6c15.4-47.5,55-83.1,103.8-93.3l323.7-67.7l0,0l323.4-69.1
	c48.8-10.4,99.4,6.1,132.7,43.3L1318.4,338.4z"/>
<path class="st3" d="M112.5,594l100.9-314.4c15.5-48.3,55.8-84.5,105.4-94.8L643,117.5"/>
<circle class="st4" cx="253.5" cy="903.6" r="123.3"/>
<circle class="st5" cx="348.9" cy="532.9" r="79"/>
<circle class="st6" cx="1204.6" cy="1123.3" r="82.1"/>
<circle class="st7" cx="1069.7" cy="82.7" r="80.3"/>
</svg>
