<?xml version="1.0" encoding="utf-8"?>
<!-- Generator: Adobe Illustrator 24.0.2, SVG Export Plug-In . SVG Version: 6.00 Build 0)  -->
<svg version="1.1" id="Layer_1" xmlns="http://www.w3.org/2000/svg" xmlns:xlink="http://www.w3.org/1999/xlink" x="0px" y="0px"
	 viewBox="0 0 1600 1903" style="enable-background:new 0 0 1600 1903;" xml:space="preserve">
<style type="text/css">
	.st0{opacity:4.000000e-02;fill:none;stroke:#0E9EBE;stroke-width:6.5847;enable-background:new    ;}
	.st1{opacity:0.2;fill:none;stroke:#0E9EBE;stroke-width:6.5847;enable-background:new    ;}
	.st2{opacity:4.000000e-02;fill:none;stroke:#0E9EBE;stroke-width:3.2924;enable-background:new    ;}
	.st3{opacity:0.2;fill:none;stroke:#0E9EBE;stroke-width:3.2924;enable-background:new    ;}
</style>
<path class="st0" d="M1170.8,529.8L1170.8,529.8l139.6,154.8c33,36.6,43.9,88.1,28.5,135l-65,198v0l-64.2,198.3
	c-15.2,46.9-54.3,82.1-102.6,92.2l-204,42.7h0l-203.8,43.5c-48.2,10.3-98.3-6-131.1-42.8l-139-155.3l0,0l-139.6-154.7
	c-33-36.6-43.9-88.1-28.5-135l65-198l0,0l64.2-198.3c15.2-46.9,54.3-82.1,102.6-92.2l204-42.7l0,0l203.8-43.5
	c48.2-10.3,98.3,6,131.1,42.8L1170.8,529.8z"/>
<path class="st1" d="M440.5,1209l128.9,142.9c31.5,34.9,80.3,54,126.1,43.1l0,0"/>
<path class="st2" d="M1329.4,387.4L1329.4,387.4l221.5,245.5c33.4,37.1,44.4,89.2,28.9,136.6l-103.2,314.2v0l-101.9,314.6
	c-15.4,47.5-55,83.1-103.8,93.3l-323.7,67.7l0,0l-323.4,69.1c-48.8,10.4-99.4-6.1-132.7-43.3l-220.5-246.4l0,0L49.1,1093.1
	c-33.4-37-44.4-89.2-28.9-136.6l103.2-314.2l0,0l101.9-314.6c15.4-47.5,55-83.1,103.8-93.3l323.7-67.7l0,0l323.4-69.1
	c48.8-10.4,99.4,6.1,132.7,43.3L1329.4,387.4z"/>
<path class="st3" d="M123.5,643l100.9-314.4c15.5-48.3,55.8-84.5,105.4-94.8L654,166.5"/>
</svg>
