<?xml version="1.0" encoding="utf-8"?>
<!-- Generator: Adobe Illustrator 24.0.2, SVG Export Plug-In . SVG Version: 6.00 Build 0)  -->
<svg version="1.1" id="Layer_1" xmlns="http://www.w3.org/2000/svg" xmlns:xlink="http://www.w3.org/1999/xlink" x="0px" y="0px"
	 viewBox="0 0 507 980" style="enable-background:new 0 0 507 980;" xml:space="preserve">
<style type="text/css">
	.st0{opacity:4.000000e-02;fill:none;stroke:#0E9EBE;stroke-width:6.5847;enable-background:new    ;}
	.st1{opacity:4.000000e-02;fill:none;stroke:#0E9EBE;stroke-width:3.2924;enable-background:new    ;}
	.st2{opacity:0.2;fill:none;stroke:#0E9EBE;stroke-width:3.2924;enable-background:new    ;}
</style>
<path class="st0" d="M1230.7,463.9L1230.7,463.9l107.5,178.6c25.4,42.3,26.3,94.9,2.2,137.9l-101.7,181.9v0l-100.9,182.3
	c-23.9,43.1-69,70.2-118.3,70.9l-208.4,2.9h0l-208.4,3.8c-49.3,0.9-95.3-24.7-120.6-67l-106.7-179l0,0L267.9,797.6
	c-25.4-42.2-26.3-94.9-2.2-137.9l101.7-181.9l0,0l100.9-182.3c23.9-43.1,69-70.2,118.3-70.9l208.4-2.9h0l208.4-3.8
	c49.3-0.9,95.3,24.7,120.5,67L1230.7,463.9z"/>
<path class="st1" d="M1413.5,354.3L1413.5,354.3L1584,637.7c25.7,42.8,26.6,96,2.2,139.6l-161.3,288.7l0,0l-160.1,289.3
	c-24.2,43.7-69.9,71-119.8,71.7l-330.6,4.6h0l-330.6,6c-49.9,0.9-96.4-25-122-67.9l-169.3-284l0,0L22,802.3
	c-25.7-42.8-26.6-96-2.2-139.6l161.3-288.7l0,0L341.2,84.8c24.2-43.7,69.9-71,119.8-71.7l330.6-4.6l0,0l330.6-6
	c49.9-0.9,96.4,25,122,67.9L1413.5,354.3z"/>
<path class="st2" d="M181,374.7L340.2,85.4c24.4-44.4,70.9-72.3,121.6-72.9l331.1-4.1"/>
</svg>
